{"title":"Shakespeare In Love 1998 720p H264 AAC-Rx(Phoenix-RG)","uid":5855418,"size":1969847251,"categoryP":"video","categoryS":"hd___movies","magnet":"?xt=urn:btih:d1d0b55ea389e2d901ee44aa06ba1bcb641ae4e7&amp;dn=Shakespeare+In+Love+1998+720p+H264+AAC-Rx%28Phoenix-RG%29&amp;tr=udp%3A%2F%2Ftracker.openbittorrent.com%3A80&amp;tr=udp%3A%2F%2Fopen.demonii.com%3A1337&amp;tr=udp%3A%2F%2Ftracker.coppersurfer.tk%3A6969&amp;tr=udp%3A%2F%2Fexodus.desync.com%3A6969","seeders":14,"leechers":2,"uploader":"rev-x","files":11,"time":1285592902,"description":"Shakespeare In Love 1998 720p BRRip H264 AAC-Rx(Phoenix-RG).mp4\n\nFormat : MPEG-4 / AVC\nFile size : 1.83 GiB\nDuration : 2h 3mn\nBit rate : 1 800 Kbps\nMaximum bit rate : 8 675 Kbps\nWidth : 1 280 pixels\nHeight : 544 pixels\nDisplay aspect ratio : 2.35\nFrame rate : 23.976 fps\nResolution : 24 bits\nColorimetry : 4:2:0\nScan type : Progressive\nBits/(Pixel*Frame) : 0.108\nStream size : 1.55 GiB (85%)\n\nAUDIO:\n\nFormat : AAC / LC\nDuration : 2h 3mn\nBit rate mode : Variable\nBit rate : 322 Kbps\nMaximum bit rate : 397 Kbps\nChannel(s) : 6 channels\nChannel positions : Front: L C R, Rear: L R, LFE\nSampling rate : 48.0 KHz\nResolution : 16 bits\nStream size : 284 MiB (15%)\n\n\nSCREEN:\n &lt;a href=&quot;\nhttp://img148.imageshack.us/img148/3728/vlcsnap2010092209h07m03.jpg&quot; rel=&quot;nofollow&quot; target=&quot;_NEW&quot;&gt;\nhttp://img148.imageshack.us/img148/3728/vlcsnap2010092209h07m03.jpg&lt;/a&gt;\n &lt;a href=&quot;\nhttp://img15.imageshack.us/img15/3651/vlcsnap2010092209h07m46.jpg&quot; rel=&quot;nofollow&quot; target=&quot;_NEW&quot;&gt;\nhttp://img15.imageshack.us/img15/3651/vlcsnap2010092209h07m46.jpg&lt;/a&gt;\n &lt;a href=&quot;\nhttp://img153.imageshack.us/img153/3835/vlcsnap2010092209h10m44.jpg&quot; rel=&quot;nofollow&quot; target=&quot;_NEW&quot;&gt;\nhttp://img153.imageshack.us/img153/3835/vlcsnap2010092209h10m44.jpg&lt;/a&gt;","torrent":{"xt":"urn:btih:d1d0b55ea389e2d901ee44aa06ba1bcb641ae4e7","amp;dn":"Shakespeare+In+Love+1998+720p+H264+AAC-Rx%28Phoenix-RG%29","amp;tr":["udp%3A%2F%2Ftracker.openbittorrent.com%3A80","udp%3A%2F%2Fopen.demonii.com%3A1337","udp%3A%2F%2Ftracker.coppersurfer.tk%3A6969","udp%3A%2F%2Fexodus.desync.com%3A6969"],"infoHash":"d1d0b55ea389e2d901ee44aa06ba1bcb641ae4e7","infoHashBuffer":{"type":"Buffer","data":[209,208,181,94,163,137,226,217,1,238,68,170,6,186,27,203,100,26,228,231]},"announce":[],"urlList":[]}}